<svg width="37" height="37" viewBox="0 0 37 37" fill="none" xmlns="http://www.w3.org/2000/svg">
<g opacity="0.84992" clip-path="url(#clip0_239_29)">
<path opacity="0.4" d="M26.9457 0.297119H10.1331C4.00626 0.297119 0.534943 3.76844 0.534943 9.89519V26.6919C0.534943 32.8187 4.00626 36.29 10.1331 36.29H26.9457C33.0725 36.29 36.5278 32.8187 36.5278 26.6919V9.89519C36.5278 3.76844 33.0725 0.297119 26.9457 0.297119Z" fill="white"/>
<path fill-rule="evenodd" clip-rule="evenodd" d="M27.9537 25L32.9537 27V25L27.9537 22.5V20C27.9537 19.7348 27.8483 19.4804 27.6608 19.2929C27.4732 19.1054 27.2189 19 26.9537 19C26.6885 19 26.4341 19.1054 26.2466 19.2929C26.059 19.4804 25.9537 19.7348 25.9537 20V22.5L20.9537 25V27L25.9537 25V28.5L23.9537 30V31L26.9537 30L29.9537 31V30L27.9537 28.5V25Z" fill="#C17B31"/>
<path fill-rule="evenodd" clip-rule="evenodd" d="M28.9537 6H24.9537V4H22.9537V6H14.9537V4H12.9537V6H8.95367C8.42324 6 7.91453 6.21071 7.53946 6.58579C7.16439 6.96086 6.95367 7.46957 6.95367 8V28C6.95367 28.5304 7.16439 29.0391 7.53946 29.4142C7.91453 29.7893 8.42324 30 8.95367 30H18.9537V28H8.95367V8H12.9537V10H14.9537V8H22.9537V10H24.9537V8H28.9537V15H30.9537V8C30.9537 7.46957 30.743 6.96086 30.3679 6.58579C29.9928 6.21071 29.4841 6 28.9537 6Z" fill="white"/>
</g>
<defs>
<clipPath id="clip0_239_29">
<rect width="36.4985" height="36.4985" fill="white" transform="translate(0.250671 0.297119)"/>
</clipPath>
</defs>
</svg>
