<svg width="38" height="37" viewBox="0 0 38 37" fill="none" xmlns="http://www.w3.org/2000/svg">
<g opacity="0.84992" clip-path="url(#clip0_239_47)">
<path opacity="0.4" d="M27.4457 0.297119H10.633C4.50623 0.297119 1.03491 3.76844 1.03491 9.89519V26.6919C1.03491 32.8187 4.50623 36.29 10.633 36.29H27.4457C33.5725 36.29 37.0278 32.8187 37.0278 26.6919V9.89519C37.0278 3.76844 33.5725 0.297119 27.4457 0.297119Z" fill="white"/>
<g clip-path="url(#clip1_239_47)">
<path fill-rule="evenodd" clip-rule="evenodd" d="M9.78138 24.6703V27.3376C9.78138 27.6913 9.92189 28.0306 10.172 28.2807C10.4221 28.5308 10.7613 28.6713 11.115 28.6713H31.12C31.4737 28.6713 31.8129 28.5308 32.063 28.2807C32.3131 28.0306 32.4536 27.6913 32.4536 27.3376V16.6683C32.4536 16.3146 32.3131 15.9754 32.063 15.7253C31.8129 15.4752 31.4737 15.3347 31.12 15.3347H29.4596V17.7813C29.6423 18.0539 29.8894 18.2772 30.179 18.4316C30.4686 18.5859 30.7918 18.6665 31.12 18.6661V25.3371C30.5914 25.3401 30.0855 25.5522 29.7127 25.927C29.34 26.3019 29.1308 26.809 29.1308 27.3376H13.1122C13.1052 26.812 12.8918 26.3103 12.518 25.9407C12.1442 25.5712 11.64 25.3635 11.1144 25.3625V24.6703H9.78138Z" fill="#C17B31"/>
<path d="M19.4571 16.6683C19.4571 17.3757 19.1761 18.0542 18.6759 18.5544C18.1756 19.0546 17.4972 19.3356 16.7898 19.3356C16.0824 19.3356 15.4039 19.0546 14.9037 18.5544C14.4035 18.0542 14.1225 17.3757 14.1225 16.6683C14.1225 15.9609 14.4035 15.2824 14.9037 14.7822C15.4039 14.282 16.0824 14.001 16.7898 14.001C17.4972 14.001 18.1756 14.282 18.6759 14.7822C19.1761 15.2824 19.4571 15.9609 19.4571 16.6683Z" fill="#C17B31"/>
<path fill-rule="evenodd" clip-rule="evenodd" d="M6.78731 10C6.4336 10 6.09437 10.1405 5.84426 10.3906C5.59415 10.6407 5.45364 10.98 5.45364 11.3337V22.003C5.45364 22.3567 5.59415 22.6959 5.84426 22.946C6.09437 23.1961 6.4336 23.3366 6.78731 23.3366H26.7922C27.146 23.3366 27.4852 23.1961 27.7353 22.946C27.9854 22.6959 28.1259 22.3567 28.1259 22.003V11.3337C28.1259 10.98 27.9854 10.6407 27.7353 10.3906C27.4852 10.1405 27.146 10 26.7922 10H6.78731ZM8.78647 11.3337H24.7924C24.7929 11.8637 25.0039 12.3719 25.3789 12.7465C25.7538 13.1211 26.2622 13.3315 26.7922 13.3315V20.0025C26.2635 20.0051 25.7574 20.2171 25.3846 20.592C25.0118 20.9669 24.8027 21.4743 24.8031 22.003H8.78513C8.77847 21.4773 8.56514 20.9753 8.19127 20.6057C7.8174 20.2361 7.31305 20.0285 6.78731 20.0278V13.3342C7.04995 13.3342 7.31002 13.2824 7.55266 13.1819C7.7953 13.0813 8.01574 12.9339 8.2014 12.7481C8.38705 12.5624 8.53428 12.3418 8.63467 12.0991C8.73506 11.8564 8.78664 11.5963 8.78647 11.3337Z" fill="white"/>
</g>
</g>
<defs>
<clipPath id="clip0_239_47">
<rect width="36.4985" height="36.4985" fill="white" transform="translate(0.750641 0.297119)"/>
</clipPath>
<clipPath id="clip1_239_47">
<rect width="32" height="32" fill="white" transform="translate(3.45364 2)"/>
</clipPath>
</defs>
</svg>
