<svg width="37" height="37" viewBox="0 0 37 37" fill="none" xmlns="http://www.w3.org/2000/svg">
<g opacity="0.84992" clip-path="url(#clip0_239_56)">
<path opacity="0.4" d="M26.992 0.297119H10.1794C4.05261 0.297119 0.581288 3.76844 0.581288 9.89519V26.6919C0.581288 32.8187 4.05261 36.29 10.1794 36.29H26.992C33.1189 36.29 36.5742 32.8187 36.5742 26.6919V9.89519C36.5742 3.76844 33.1189 0.297119 26.992 0.297119Z" fill="white"/>
<g clip-path="url(#clip1_239_56)">
<path fill-rule="evenodd" clip-rule="evenodd" d="M14.125 7.4375H23.875C24.0905 7.4375 24.2972 7.5231 24.4495 7.67548C24.6019 7.82785 24.6875 8.03451 24.6875 8.25V27.75C24.6875 27.9655 24.6019 28.1722 24.4495 28.3245C24.2972 28.4769 24.0905 28.5625 23.875 28.5625H14.125C13.9095 28.5625 13.7029 28.4769 13.5505 28.3245C13.3981 28.1722 13.3125 27.9655 13.3125 27.75V8.25C13.3125 8.03451 13.3981 7.82785 13.5505 7.67548C13.7029 7.5231 13.9095 7.4375 14.125 7.4375ZM10.875 8.25C10.875 7.38805 11.2174 6.5614 11.8269 5.9519C12.4364 5.34241 13.2631 5 14.125 5H23.875C24.737 5 25.5636 5.34241 26.1731 5.9519C26.7826 6.5614 27.125 7.38805 27.125 8.25V27.75C27.125 28.612 26.7826 29.4386 26.1731 30.0481C25.5636 30.6576 24.737 31 23.875 31H14.125C13.2631 31 12.4364 30.6576 11.8269 30.0481C11.2174 29.4386 10.875 28.612 10.875 27.75V8.25ZM19 26.125C19.431 26.125 19.8443 25.9538 20.1491 25.649C20.4538 25.3443 20.625 24.931 20.625 24.5C20.625 24.069 20.4538 23.6557 20.1491 23.351C19.8443 23.0462 19.431 22.875 19 22.875C18.569 22.875 18.1557 23.0462 17.851 23.351C17.5462 23.6557 17.375 24.069 17.375 24.5C17.375 24.931 17.5462 25.3443 17.851 25.649C18.1557 25.9538 18.569 26.125 19 26.125Z" fill="white"/>
<path d="M21.0968 24.7097C21.0968 25.2658 20.8759 25.7991 20.4827 26.1923C20.0894 26.5856 19.5561 26.8065 19 26.8065C18.4439 26.8065 17.9106 26.5856 17.5174 26.1923C17.1242 25.7991 16.9032 25.2658 16.9032 24.7097C16.9032 24.1536 17.1242 23.6203 17.5174 23.227C17.9106 22.8338 18.4439 22.6129 19 22.6129C19.5561 22.6129 20.0894 22.8338 20.4827 23.227C20.8759 23.6203 21.0968 24.1536 21.0968 24.7097Z" fill="#C17B31"/>
</g>
</g>
<defs>
<clipPath id="clip0_239_56">
<rect width="36.4985" height="36.4985" fill="white" transform="translate(0.297015 0.297119)"/>
</clipPath>
<clipPath id="clip1_239_56">
<rect width="32" height="32" fill="white" transform="translate(3.00002 2)"/>
</clipPath>
</defs>
</svg>
