<svg width="37" height="37" viewBox="0 0 37 37" fill="none" xmlns="http://www.w3.org/2000/svg">
<g opacity="0.84992" clip-path="url(#clip0_239_36)">
<path opacity="0.4" d="M26.9457 0.297119H10.133C4.00623 0.297119 0.534912 3.76844 0.534912 9.89519V26.6919C0.534912 32.8187 4.00623 36.29 10.133 36.29H26.9457C33.0725 36.29 36.5278 32.8187 36.5278 26.6919V9.89519C36.5278 3.76844 33.0725 0.297119 26.9457 0.297119Z" fill="white"/>
<g clip-path="url(#clip1_239_36)">
<path d="M30.9536 26H26.9536V22H24.9536V26H20.9536V28H24.9536V32H26.9536V28H30.9536V26Z" fill="#C17B31"/>
<path d="M12.9536 30V12H24.9536V19H26.9536V8C26.9531 7.46973 26.7422 6.96133 26.3672 6.58637C25.9923 6.21141 25.4839 6.00053 24.9536 6H12.9536C12.4233 6.00053 11.9149 6.21141 11.54 6.58637C11.165 6.96133 10.9541 7.46973 10.9536 8V30C10.9541 30.5303 11.165 31.0387 11.54 31.4136C11.9149 31.7886 12.4233 31.9995 12.9536 32H18.9536V30H12.9536ZM12.9536 8H24.9536V10H12.9536V8Z" fill="white"/>
</g>
</g>
<defs>
<clipPath id="clip0_239_36">
<rect width="36.4985" height="36.4985" fill="white" transform="translate(0.25061 0.297119)"/>
</clipPath>
<clipPath id="clip1_239_36">
<rect width="32" height="32" fill="white" transform="translate(2.95361 2)"/>
</clipPath>
</defs>
</svg>
