<svg width="38" height="37" viewBox="0 0 38 37" fill="none" xmlns="http://www.w3.org/2000/svg">
<g opacity="0.84992" clip-path="url(#clip0_239_62)">
<path opacity="0.4" d="M27.4457 0.297119H10.633C4.50623 0.297119 1.03491 3.76844 1.03491 9.89519V26.6919C1.03491 32.8187 4.50623 36.29 10.633 36.29H27.4457C33.5725 36.29 37.0278 32.8187 37.0278 26.6919V9.89519C37.0278 3.76844 33.5725 0.297119 27.4457 0.297119Z" fill="white"/>
<g clip-path="url(#clip1_239_62)">
<g clip-path="url(#clip2_239_62)">
<path fill-rule="evenodd" clip-rule="evenodd" d="M10.7127 8.31974L27.7669 8.25582C28.2158 8.25418 28.6607 8.34483 29.0759 8.52256C29.4911 8.70029 29.8685 8.9616 30.1865 9.29152C30.5045 9.62143 30.7568 10.0135 30.9289 10.4451C31.1011 10.8768 31.1897 11.3396 31.1897 11.807V20.6883C31.1897 21.6301 30.8303 22.5334 30.1907 23.1994C29.551 23.8653 28.6835 24.2395 27.7789 24.2395H10.7247C9.82007 24.2395 8.95251 23.8653 8.31285 23.1994C7.6732 22.5334 7.31384 21.6301 7.31384 20.6883V11.8709C7.31384 10.9312 7.67155 10.0298 8.30863 9.36423C8.94571 8.69862 9.8102 8.32303 10.7127 8.31974Z" stroke="white" stroke-width="2.17053" stroke-linecap="round" stroke-linejoin="round"/>
<path d="M22.6062 15.5392L18.0578 11.9881C17.9312 11.8892 17.7805 11.8289 17.6228 11.8141C17.4651 11.7993 17.3065 11.8305 17.1649 11.9043C17.0232 11.978 16.9041 12.0913 16.8209 12.2316C16.7376 12.3718 16.6935 12.5335 16.6935 12.6983V19.8006C16.6935 19.9655 16.7376 20.1271 16.8209 20.2673C16.9041 20.4076 17.0232 20.5209 17.1649 20.5946C17.3065 20.6684 17.4651 20.6996 17.6228 20.6848C17.7805 20.67 17.9312 20.6097 18.0578 20.5108L22.6062 16.9597C22.7121 16.877 22.7981 16.7698 22.8573 16.6465C22.9165 16.5232 22.9473 16.3873 22.9473 16.2495C22.9473 16.1116 22.9165 15.9757 22.8573 15.8524C22.7981 15.7292 22.7121 15.6219 22.6062 15.5392Z" fill="#C17B31"/>
<path d="M10.6634 27.7906H27.779" stroke="white" stroke-width="2.17053" stroke-linecap="round" stroke-linejoin="round"/>
</g>
</g>
</g>
<defs>
<clipPath id="clip0_239_62">
<rect width="36.4985" height="36.4985" fill="white" transform="translate(0.750641 0.297119)"/>
</clipPath>
<clipPath id="clip1_239_62">
<rect width="26.0464" height="26.0464" fill="white" transform="translate(6.49991 5)"/>
</clipPath>
<clipPath id="clip2_239_62">
<rect width="26.0464" height="26.0464" fill="white" transform="translate(6.49991 5)"/>
</clipPath>
</defs>
</svg>
